<svg width="24" height="24" viewBox="0 0 24 24" xmlns="http://www.w3.org/2000/svg">
    <g fill="none" fill-rule="evenodd">
        <path d="M0 0h24v24H0z"/>
        <path d="M7.65 6.41a2.61 2.61 0 0 1 2.61-2.61h3.915a2.61 2.61 0 0 1 2.61 2.61v.87H7.65v-.87zM3.3 11.195l8.489 2.122a.87.87 0 0 0 .422 0l8.489-2.122V18.2a2 2 0 0 1-2 2H5.3a2 2 0 0 1-2-2v-7.005h0z" stroke="#3266FF" stroke-width="1.5" stroke-linecap="round" stroke-linejoin="round"/>
        <path d="M20.7 12.065V9.28a2 2 0 0 0-2-2H5.3a2 2 0 0 0-2 2v2.785h0" stroke="#3266FF" stroke-width="1.5" stroke-linecap="round" stroke-linejoin="round"/>
        <path d="M13.087 10.325a1.088 1.088 0 1 1-2.175 0 1.088 1.088 0 0 1 2.175 0z" fill="#3266FF" fill-rule="nonzero"/>
    </g>
</svg>
