<?xml version="1.0" encoding="UTF-8"?>
<svg width="18px" height="18px" viewBox="0 0 18 18" version="1.1" xmlns="http://www.w3.org/2000/svg" xmlns:xlink="http://www.w3.org/1999/xlink">
    <title>4A81FF92-35E9-4977-AF19-0C1984C4143F</title>
    <g id="页面-1" stroke="none" stroke-width="1" fill="none" fill-rule="evenodd">
        <g id="CareerMate-AI_Landing-page" transform="translate(-1595.000000, -3687.000000)">
            <g id="编组-25" transform="translate(880.000000, 3184.000000)">
                <g transform="translate(100.000000, 40.000000)" id="编组-11">
                    <g transform="translate(615.000000, 463.000000)">
                        <rect id="矩形" x="0" y="0" width="18" height="18"></rect>
                        <path d="M14.25,2.25 C14.4571068,2.25 14.625,2.41789322 14.625,2.625 L14.625,3.375 L15.375,3.375 C15.5821068,3.375 15.75,3.54289322 15.75,3.75 C15.75,3.95710678 15.5821068,4.125 15.375,4.125 L14.625,4.124 L14.625,4.875 C14.625,5.08210678 14.4571068,5.25 14.25,5.25 C14.0428932,5.25 13.875,5.08210678 13.875,4.875 L13.875,4.124 L13.125,4.125 C12.9178932,4.125 12.75,3.95710678 12.75,3.75 C12.75,3.54289322 12.9178932,3.375 13.125,3.375 L13.875,3.375 L13.875,2.625 C13.875,2.41789322 14.0428932,2.25 14.25,2.25 Z" id="形状结合" fill="#FFFFFF"></path>
                        <path d="M5.72482504,10.2478011 L1.824715,9.0959045 C1.77174841,9.08026083 1.7414922,9.02464122 1.75713587,8.97167463 C1.76674348,8.93914504 1.79218542,8.9137031 1.824715,8.9040955 L5.72482504,7.75219888 C6.70071249,7.46397075 7.46397075,6.70071249 7.75219888,5.72482504 L8.9040955,1.824715 C8.91973917,1.77174841 8.97535878,1.7414922 9.02832537,1.75713587 C9.06085496,1.76674348 9.0862969,1.79218542 9.0959045,1.824715 L10.2478011,5.72482504 C10.5360293,6.70071249 11.2992875,7.46397075 12.275175,7.75219888 L16.175285,8.9040955 C16.2282516,8.91973917 16.2585078,8.97535878 16.2428641,9.02832537 C16.2332565,9.06085496 16.2078146,9.0862969 16.175285,9.0959045 L12.275175,10.2478011 C11.2992875,10.5360293 10.5360293,11.2992875 10.2478011,12.275175 L9.0959045,16.175285 C9.08026083,16.2282516 9.02464122,16.2585078 8.97167463,16.2428641 C8.93914504,16.2332565 8.9137031,16.2078146 8.9040955,16.175285 L7.75219888,12.275175 C7.46397075,11.2992875 6.70071249,10.5360293 5.72482504,10.2478011 Z" id="星形" stroke="#FFFFFF" stroke-width="1.5"></path>
                    </g>
                </g>
            </g>
        </g>
    </g>
</svg>