<svg width="18" height="18" viewBox="0 0 18 18" xmlns="http://www.w3.org/2000/svg">
    <g fill="none" fill-rule="evenodd">
        <path d="M0 0h18v18H0z"/>
        <path d="M14.25 2.25c.207 0 .375.168.375.375v.75h.75a.375.375 0 1 1 0 .75l-.75-.001v.751a.375.375 0 1 1-.75 0v-.751l-.75.001a.375.375 0 1 1 0-.75h.75v-.75c0-.207.168-.375.375-.375z" fill="#FFF"/>
        <path d="m5.725 10.248-3.9-1.152a.1.1 0 0 1 0-.192l3.9-1.152a3 3 0 0 0 2.027-2.027l1.152-3.9a.1.1 0 0 1 .192 0l1.152 3.9a3 3 0 0 0 2.027 2.027l3.9 1.152a.1.1 0 0 1 0 .192l-3.9 1.152a3 3 0 0 0-2.027 2.027l-1.152 3.9a.1.1 0 0 1-.192 0l-1.152-3.9a3 3 0 0 0-2.027-2.027z" stroke="#FFF" stroke-width="1.5"/>
    </g>
</svg>
