<svg width="19" height="18" viewBox="0 0 19 18" xmlns="http://www.w3.org/2000/svg">
    <g fill="#FFF" fill-rule="nonzero">
        <path d="m10.151 1.973.24 2.748a3.586 3.586 0 0 0-3.26 3.885l-2.747.24a6.344 6.344 0 0 1 5.767-6.873zm-5.842-.32a1.38 1.38 0 1 1 .24 2.748 1.38 1.38 0 0 1-.24-2.747zM1.598 11.809l2.26-1.582a3.586 3.586 0 0 0 4.993.88l1.582 2.26a6.344 6.344 0 0 1-8.835-1.558zm2.644 5.22a1.38 1.38 0 1 1 2.26-1.583 1.38 1.38 0 0 1-2.26 1.582zM14.08 14.48l-2.5-1.165A3.586 3.586 0 0 0 9.846 8.55l1.166-2.5a6.344 6.344 0 0 1 3.068 8.43zm3.198-4.9a1.38 1.38 0 1 1-2.5-1.165 1.38 1.38 0 0 1 2.5 1.166z"/>
    </g>
</svg>
