<svg width="20" height="20" viewBox="0 0 20 20" xmlns="http://www.w3.org/2000/svg">
    <g fill="#FFF" fill-rule="nonzero">
        <path d="M11.723 1.034v3.448A4.482 4.482 0 0 0 7.24 8.964H3.793a7.93 7.93 0 0 1 7.93-7.93zM4.483 0a1.724 1.724 0 1 1 0 3.448 1.724 1.724 0 0 1 0-3.448zM0 12.35l2.986-1.724a4.482 4.482 0 0 0 6.123 1.64l1.724 2.987A7.93 7.93 0 0 1 0 12.35zm2.724 6.788a1.724 1.724 0 1 1 2.986-1.724 1.724 1.724 0 0 1-2.986 1.724zM15.253 17.037l-2.986-1.724a4.482 4.482 0 0 0-1.64-6.122l1.723-2.986a7.93 7.93 0 0 1 2.903 10.832zm4.516-5.753a1.724 1.724 0 1 1-2.986-1.724 1.724 1.724 0 0 1 2.986 1.724z"/>
    </g>
</svg>
