<?xml version="1.0" encoding="UTF-8"?>
<svg width="20px" height="20px" viewBox="0 0 20 20" version="1.1" xmlns="http://www.w3.org/2000/svg" xmlns:xlink="http://www.w3.org/1999/xlink">
    <title>66B5CAF1-2EEF-42FB-BDEB-4F6F116F0511</title>
    <g id="页面-1" stroke="none" stroke-width="1" fill="none" fill-rule="evenodd">
        <g id="CareerMate-AI_Landing-page" transform="translate(-1052.000000, -3343.000000)" fill="#FFFFFF" fill-rule="nonzero">
            <g id="编组-25" transform="translate(880.000000, 3184.000000)">
                <g transform="translate(100.000000, 40.000000)" id="编组-24">
                    <g transform="translate(32.000000, 89.000000)">
                        <g id="编组-22" transform="translate(30.000000, 20.000000)">
                            <g id="编组-13" transform="translate(10.000000, 10.000000)">
                                <path d="M11.7226487,1.03435135 L11.7226487,4.4821892 C9.24720394,4.4821892 7.24045948,6.48893366 7.24045948,8.9643784 L3.79262163,8.9643784 C3.79262163,4.5847454 7.34301567,1.03435135 11.7226487,1.03435135 Z M4.4821892,0 C5.43428333,0 6.20610812,0.771824792 6.20610812,1.72391892 C6.20610812,2.67601305 5.43428333,3.44783785 4.4821892,3.44783785 C3.53009507,3.44783785 2.75827028,2.67601305 2.75827028,1.72391892 C2.75827028,0.771824792 3.53009507,0 4.4821892,0 Z" id="形状结合"></path>
                                <path d="M0,12.3501552 L2.98591516,10.6262362 C4.22363753,12.7700343 6.96490144,13.5045537 9.10869948,12.2668314 L10.8326184,15.2527465 C7.03974496,17.442563 2.1898165,16.1430286 0,12.3501552 Z M2.72445519,19.1377527 C2.24840812,18.313215 2.53091561,17.2588827 3.35545331,16.7828356 C4.17999101,16.3067886 5.23432329,16.5892961 5.71037035,17.4138338 C6.18641742,18.2383715 5.90390994,19.2927037 5.07937223,19.7687508 C4.25483453,20.2447979 3.20050226,19.9622904 2.72445519,19.1377527 Z" id="形状"></path>
                                <path d="M15.2527465,17.0372512 L12.2668314,15.3133322 C13.5045537,13.1695342 12.7700343,10.4282703 10.6262362,9.19054793 L12.3501552,6.20463277 C16.1430286,8.39444927 17.442563,13.2443777 15.2527465,17.0372512 Z M19.7687508,11.284005 C19.2927037,12.1085427 18.2383715,12.3910502 17.4138338,11.9150031 C16.5892961,11.4389561 16.3067886,10.3846238 16.7828356,9.56008608 C17.2588827,8.73554837 18.313215,8.45304089 19.1377527,8.92908796 C19.9622904,9.40513502 20.2447979,10.4594673 19.7687508,11.284005 Z" id="形状"></path>
                            </g>
                        </g>
                    </g>
                </g>
            </g>
        </g>
    </g>
</svg>