<?xml version="1.0" encoding="UTF-8"?>
<svg width="41px" height="40px" viewBox="0 0 41 40" version="1.1" xmlns="http://www.w3.org/2000/svg" xmlns:xlink="http://www.w3.org/1999/xlink">
    <title>92BF9AEC-7FF4-4526-99A5-125022046B1D</title>
    <g id="页面-1" stroke="none" stroke-width="1" fill="none" fill-rule="evenodd">
        <g id="CareerMate-AI_Landing-page" transform="translate(-940.000000, -4296.000000)" fill="#FFFFFF" fill-rule="nonzero">
            <g id="编组-7" transform="translate(296.000000, 3984.000000)">
                <g id="编组-60" transform="translate(194.000000, 148.000000)">
                    <g id="编组-13" transform="translate(450.500000, 164.000000)">
                        <path d="M23.4452974,2.06870271 L23.4452974,8.9643784 C18.4944079,8.9643784 14.480919,12.9778673 14.480919,17.9287568 L7.58524326,17.9287568 C7.58524326,9.16949079 14.6860313,2.06870271 23.4452974,2.06870271 Z M8.9643784,0 C10.8685667,0 12.4122162,1.54364958 12.4122162,3.44783785 C12.4122162,5.35202611 10.8685667,6.89567569 8.9643784,6.89567569 C7.06019014,6.89567569 5.51654055,5.35202611 5.51654055,3.44783785 C5.51654055,1.54364958 7.06019014,0 8.9643784,0 Z" id="形状结合"></path>
                        <path d="M0,24.7003103 L5.97183033,21.2524725 C8.44727507,25.5400685 13.9298029,27.0091075 18.217399,24.5336627 L21.6652368,30.505493 C14.0794899,34.885126 4.379633,32.2860572 0,24.7003103 Z M5.44891038,38.2755054 C4.49681625,36.62643 5.06183121,34.5177654 6.71090662,33.5656713 C8.35998203,32.6135772 10.4686466,33.1785921 11.4207407,34.8276675 C12.3728348,36.4767429 11.8078199,38.5854075 10.1587445,39.5375016 C8.50966906,40.4895957 6.40100451,39.9245808 5.44891038,38.2755054 Z" id="形状"></path>
                        <path d="M30.505493,34.0745023 L24.5336627,30.6266645 C27.0091075,26.3390684 25.5400685,20.8565406 21.2524725,18.3810959 L24.7003103,12.4092655 C32.2860572,16.7888985 34.885126,26.4887554 30.505493,34.0745023 Z M39.5375016,22.56801 C38.5854075,24.2170854 36.4767429,24.7821004 34.8276675,23.8300062 C33.1785921,22.8779121 32.6135772,20.7692476 33.5656713,19.1201722 C34.5177654,17.4710967 36.62643,16.9060818 38.2755054,17.8581759 C39.9245808,18.81027 40.4895957,20.9189346 39.5375016,22.56801 Z" id="形状"></path>
                    </g>
                </g>
            </g>
        </g>
    </g>
</svg>