<?xml version="1.0" encoding="UTF-8"?>
<svg width="36px" height="40px" viewBox="0 0 36 40" version="1.1" xmlns="http://www.w3.org/2000/svg" xmlns:xlink="http://www.w3.org/1999/xlink">
    <title>E10469C0-F29B-4BFB-B91D-5CC540CDD8E1</title>
    <defs>
        <linearGradient x1="33.1360076%" y1="0%" x2="1085.66065%" y2="50%" id="linearGradient-1">
            <stop stop-color="#FF7E3B" offset="0%"></stop>
            <stop stop-color="#FF3B6F" offset="100%"></stop>
        </linearGradient>
        <linearGradient x1="33.1360076%" y1="0%" x2="1085.66065%" y2="50%" id="linearGradient-2">
            <stop stop-color="#FFFFFF" offset="0%"></stop>
            <stop stop-color="#FFFFFF" offset="100%"></stop>
        </linearGradient>
        <linearGradient x1="54.5962544%" y1="0%" x2="557.246912%" y2="100%" id="linearGradient-3">
            <stop stop-color="#10162F" offset="0%"></stop>
            <stop stop-color="#FF3B6F" offset="100%"></stop>
        </linearGradient>
        <linearGradient x1="54.5962544%" y1="0%" x2="557.246912%" y2="100%" id="linearGradient-4">
            <stop stop-color="#FFFFFF" offset="0%"></stop>
            <stop stop-color="#FFFFFF" offset="100%"></stop>
        </linearGradient>
    </defs>
    <g id="页面-1" stroke="none" stroke-width="1" fill="none" fill-rule="evenodd">
        <g id="CareerMate-AI_Landing-page" transform="translate(-1372.000000, -4302.000000)">
            <g id="编组-7" transform="translate(296.000000, 3984.000000)">
                <g id="编组-60" transform="translate(194.000000, 148.000000)">
                    <g id="编组-16" transform="translate(882.566222, 170.000000)">
                        <path d="M24.2043222,23.0682329 L33.3837874,17.921522 C33.6907336,17.749404 34.0677497,17.7506957 34.3734656,17.9249127 C34.6791814,18.0991298 34.8674043,18.4199485 34.8675561,18.7670712 L34.8675561,21.775606 C34.8675561,22.1204077 34.6819561,22.4398937 34.379325,22.6150793 L25.1998598,27.9314063 C24.8932578,28.1086492 24.5134818,28.1110572 24.204575,27.9377172 C23.8956682,27.7643771 23.7049469,27.44184 23.7047489,27.0924393 L23.7047489,23.913782 C23.7047489,23.5644234 23.8955044,23.2413933 24.2048377,23.0682329 L24.2043222,23.0682329 Z" id="路径" fill="#FFFFFF" fill-rule="nonzero"></path>
                        <path d="M31.5355252,32.1019382 L31.4911833,19.5523686 L27.0414239,21.4389052 L27.1419573,33.4750696 C27.1448755,33.8213434 27.3347521,34.1400667 27.6406891,34.3122315 C27.9466262,34.4843964 28.3226296,34.4841198 28.6283037,34.311505 L31.0385256,32.9495127 C31.3468277,32.7748333 31.5365521,32.4512969 31.5355252,32.1014319 L31.5355252,32.1019382 Z" id="路径" fill="#FFFFFF" fill-rule="nonzero"></path>
                        <g id="编组">
                            <g fill-rule="nonzero" id="4z3vqk4a4a-link">
                                <g fill="url(#linearGradient-2)">
                                    <path d="M0.0660147357,29.1551741 L1.17592669e-05,11.0994087 C-0.00239222668,10.4122668 0.363941578,9.77468648 0.964112376,9.42147465 L16.6998966,0.158914078 C17.0542668,-0.0504018917 17.4967009,-0.0531199799 17.8537098,0.151825642 L34.6582406,9.76577012 C34.663593,9.76296338 34.6700428,9.7630747 34.6752915,9.76606439 C34.6805402,9.76905409 34.6840183,9.77449693 34.6840183,9.78045331 L34.6675206,11.8517956 C34.6646796,12.1953331 34.4777938,12.5120015 34.1756806,12.6851931 L19.0874341,21.333085 L19.0874341,39.2789797 L18.8724474,39.4764433 C18.2310849,40.0639132 17.2730477,40.1680883 16.5163589,39.7326396 L1.04660125,30.829564 C0.441358071,30.4811321 0.0685090708,29.8446703 0.0660147357,29.1556805 L0.0660147357,29.1551741 Z M25.9881441,8.82250181 L11.9531774,16.3489019 L11.9531774,33.2522901 L15.9116123,35.7023574 L15.9332656,18.4703695 L29.7357169,10.6452425 C29.8164218,10.5997319 29.8651912,10.5144017 29.8628047,10.4230385 C29.8602382,10.3316753 29.8069152,10.249014 29.7238591,10.2077847 L26.9120195,8.80883126 C26.6207095,8.66382636 26.2753865,8.66893895 25.9886597,8.82250181 L25.9881441,8.82250181 Z" id="4z3vqk4a4a"></path>
                                </g>
                                <g fill="url(#linearGradient-4)">
                                    <path d="M0.0660147357,29.1551741 L1.17592669e-05,11.0994087 C-0.00239222668,10.4122668 0.363941578,9.77468648 0.964112376,9.42147465 L16.6998966,0.158914078 C17.0542668,-0.0504018917 17.4967009,-0.0531199799 17.8537098,0.151825642 L34.6582406,9.76577012 C34.663593,9.76296338 34.6700428,9.7630747 34.6752915,9.76606439 C34.6805402,9.76905409 34.6840183,9.77449693 34.6840183,9.78045331 L34.6675206,11.8517956 C34.6646796,12.1953331 34.4777938,12.5120015 34.1756806,12.6851931 L19.0874341,21.333085 L19.0874341,39.2789797 L18.8724474,39.4764433 C18.2310849,40.0639132 17.2730477,40.1680883 16.5163589,39.7326396 L1.04660125,30.829564 C0.441358071,30.4811321 0.0685090708,29.8446703 0.0660147357,29.1556805 L0.0660147357,29.1551741 Z M25.9881441,8.82250181 L11.9531774,16.3489019 L11.9531774,33.2522901 L15.9116123,35.7023574 L15.9332656,18.4703695 L29.7357169,10.6452425 C29.8164218,10.5997319 29.8651912,10.5144017 29.8628047,10.4230385 C29.8602382,10.3316753 29.8069152,10.249014 29.7238591,10.2077847 L26.9120195,8.80883126 C26.6207095,8.66382636 26.2753865,8.66893895 25.9886597,8.82250181 L25.9881441,8.82250181 Z" id="4z3vqk4a4a"></path>
                                </g>
                            </g>
                            <g id="Clipped" transform="translate(0.000012, 0.000000)">
                                <path d="M25.9881323,8.82250181 L11.9531656,16.3489019 L11.9531656,33.2522901 L15.9116006,35.7023574 L15.9332539,18.4703695 L29.7357051,10.6452425 C29.81641,10.5997319 29.8651794,10.5144017 29.8627929,10.4230385 C29.8602264,10.3316753 29.8069034,10.249014 29.7238473,10.2077847 L26.9120078,8.80883126 C26.6206977,8.66382636 26.2753748,8.66893895 25.9886479,8.82250181 L25.9881323,8.82250181 Z" id="4z3vqk4a4a-path"></path>
                                <path d="M0.0660029764,29.1551741 L0,11.0994087 C-0.00240398594,10.4122668 0.363929818,9.77468648 0.964100617,9.42147465 L16.6998849,0.158914078 C17.054255,-0.0504018917 17.4966891,-0.0531199799 17.853698,0.151825642 L34.6582288,9.76577012 C34.6635812,9.76296338 34.670031,9.7630747 34.6752797,9.76606439 C34.6805284,9.76905409 34.6840066,9.77449693 34.6840066,9.78045331 L34.6675088,11.8517956 C34.6646678,12.1953331 34.477782,12.5120015 34.1756689,12.6851931 L19.0874223,21.333085 L19.0874223,39.2789797 L18.8724357,39.4764433 C18.2310732,40.0639132 17.2730359,40.1680883 16.5163471,39.7326396 L1.04658949,30.829564 C0.441346312,30.4811321 0.0684973115,29.8446703 0.0660029764,29.1556805 L0.0660029764,29.1551741 Z" id="4z3vqk4a4a-path"></path>
                            </g>
                        </g>
                    </g>
                </g>
            </g>
        </g>
    </g>
</svg>