<svg width="78" height="189" viewBox="0 0 78 189" xmlns="http://www.w3.org/2000/svg">
    <g fill="none" fill-rule="evenodd">
        <path d="m9.873 100.476-8.37 5.586 9.492 3.343-1.122-8.93zm2.503 3.457c-.639.161-1.282.311-1.93.449l.209.978c.66-.14 1.315-.293 1.966-.457l-.245-.97zm3.815-1.119c-.626.21-1.256.408-1.89.594l.282.96c.646-.19 1.288-.392 1.926-.606l-.318-.948zm3.722-1.408c-.609.257-1.222.503-1.839.736l.354.935a53.254 53.254 0 0 0 1.875-.75l-.39-.921zm3.6-1.683c-.59.303-1.183.593-1.78.873l.425.905c.607-.284 1.211-.58 1.811-.889l-.457-.89zm3.466-1.945a55.36 55.36 0 0 1-1.71 1l.49.873a56.36 56.36 0 0 0 1.74-1.02l-.52-.853zm3.32-2.186c-.542.384-1.088.757-1.637 1.12l.55.834a59.266 59.266 0 0 0 1.665-1.138l-.578-.816zm3.166-2.404c-.517.42-1.037.828-1.56 1.226l.605.796c.532-.404 1.06-.82 1.585-1.245l-.63-.777zm3.009-2.598c-.491.45-.985.89-1.483 1.32l.654.757a67.708 67.708 0 0 0 1.505-1.34l-.676-.737zm2.849-2.767c-.465.477-.934.945-1.405 1.403l.697.717c.478-.464.953-.938 1.424-1.422l-.716-.698zm2.703-2.925c-.44.501-.883.994-1.33 1.477l.735.678c.452-.489.9-.988 1.347-1.495l-.752-.66zm2.53-3.024a85.56 85.56 0 0 1-1.259 1.54l.767.642c.427-.51.852-1.03 1.273-1.558l-.782-.624zm2.417-3.172c-.394.54-.79 1.072-1.19 1.596l.796.606c.404-.53.804-1.067 1.202-1.613l-.808-.59zm2.282-3.268c-.372.556-.747 1.104-1.124 1.644l.82.572c.381-.546.76-1.099 1.135-1.66l-.831-.556zm2.154-3.352c-.351.569-.705 1.13-1.06 1.684l.84.54c.36-.558.717-1.125 1.07-1.698l-.85-.526zm2.04-3.434c-.332.581-.666 1.155-1.003 1.722l.86.511c.34-.572.677-1.15 1.012-1.736l-.868-.497zm1.925-3.487c-.314.59-.63 1.174-.95 1.752l.876.483c.321-.582.64-1.17.956-1.765l-.882-.47zm1.823-3.549c-.298.6-.597 1.192-.898 1.779l.89.457c.303-.591.604-1.188.903-1.791l-.895-.445zm1.726-3.597c-.282.606-.565 1.207-.85 1.801l.901.433c.288-.599.573-1.203.856-1.813l-.907-.421zm1.636-3.643c-.267.614-.536 1.223-.807 1.826l.913.41c.272-.607.543-1.22.811-1.837l-.917-.399zm1.55-3.678c-.252.62-.507 1.234-.764 1.843l.922.389c.258-.613.514-1.23.769-1.853l-.926-.379zm1.469-3.702c-.24.624-.482 1.242-.725 1.855l.93.369c.244-.617.487-1.238.728-1.865l-.933-.359zm1.395-3.734c-.228.628-.458 1.252-.69 1.872l.938.35c.232-.623.463-1.25.692-1.881l-.94-.341zM66.3 39.49c-.217.632-.435 1.26-.654 1.882l.943.333c.22-.626.44-1.256.657-1.891l-.946-.324zm1.263-3.794c-.206.636-.413 1.268-.622 1.895l.949.316c.21-.63.418-1.264.624-1.903l-.951-.308zm1.198-3.803c-.196.638-.393 1.273-.591 1.903l.954.3c.199-.632.397-1.27.593-1.91l-.956-.293zm1.144-3.835c-.187.643-.375 1.283-.565 1.918l.959.286c.19-.638.379-1.28.566-1.925l-.96-.28zm1.083-3.83c-.178.644-.357 1.285-.537 1.923l.962.272c.181-.64.36-1.283.539-1.93l-.964-.266zm1.035-3.862c-.169.647-.339 1.29-.51 1.93l.966.258c.172-.641.342-1.286.512-1.935l-.968-.253zm.987-3.876a327.66 327.66 0 0 1-.486 1.936l.969.246c.164-.643.326-1.29.488-1.941l-.97-.241zm.94-3.887c-.154.652-.308 1.3-.464 1.945l.972.235c.156-.646.311-1.297.465-1.95l-.973-.23zm.894-3.892c-.146.653-.293 1.302-.441 1.948l.974.224c.149-.648.297-1.299.443-1.953l-.976-.219zm.853-3.904c-.14.655-.28 1.306-.421 1.954l.977.213c.142-.65.283-1.302.422-1.959l-.978-.208zM76.51.901c-.133.654-.266 1.305-.401 1.954l.98.203c.134-.65.268-1.303.401-1.959l-.98-.198z" fill="#161616" fill-rule="nonzero"/>
        <path d="M77 65.094c-14.512 39.612-36.434 59.833-65.768 60.662" stroke="#161616" stroke-dasharray="2"/>
        <path d="m77.034 160.204-.97.243c.159.634.308 1.278.447 1.931l.978-.208a55.427 55.427 0 0 0-.455-1.966zm-1.137-3.876-.947.32c.21.619.407 1.248.595 1.887l.96-.28a49.089 49.089 0 0 0-.608-1.927zm-1.465-3.779-.915.404c.264.598.516 1.207.756 1.827l.933-.361a43.956 43.956 0 0 0-.774-1.87zm-1.825-3.639-.87.493c.322.569.632 1.15.929 1.742l.894-.448a40.076 40.076 0 0 0-.953-1.787zm-2.171-3.405-.813.582c.38.532.749 1.077 1.104 1.635l.843-.538a37.527 37.527 0 0 0-1.134-1.68zm-2.556-3.18-.743.669c.44.488.866.988 1.278 1.502l.78-.627a36.29 36.29 0 0 0-1.315-1.545zm-2.905-2.882-.663.749c.493.436.972.886 1.439 1.348l.703-.71c-.479-.476-.972-.938-1.48-1.387zm-3.134-2.488-.58.815c.54.383 1.065.778 1.578 1.186l.622-.783a37.86 37.86 0 0 0-1.62-1.218zm-8.303-8.888-9.902 1.793 7.375 6.845 1.11-3.797.402.158.37-.929a49.044 49.044 0 0 0-.49-.192l1.135-3.878zm4.87 6.706-.493.87a39.65 39.65 0 0 1 1.694 1.016l.536-.844a40.65 40.65 0 0 0-1.737-1.042zm-3.629-1.837-.41.912c.607.273 1.202.557 1.785.851l.45-.892a44.75 44.75 0 0 0-1.825-.87zM76.136 186.124l-.777.63c.417.514.833 1.033 1.25 1.557l.782-.622c-.418-.526-.836-1.048-1.255-1.565zm-2.549-3.087-.764.644c.425.505.85 1.016 1.276 1.53l.771-.636c-.427-.518-.855-1.03-1.283-1.538zm-2.616-3.042-.752.66c.437.496.872.997 1.308 1.504l.758-.652c-.438-.51-.876-1.013-1.314-1.512zm-2.685-2.99-.737.677c.448.487.895.979 1.341 1.476l.744-.668c-.449-.5-.898-.995-1.348-1.485zm-2.748-2.92-.72.693c.458.476.917.958 1.375 1.445l.729-.685c-.461-.49-.923-.975-1.384-1.454zm-2.825-2.859-.702.713c.47.464.941.934 1.412 1.41l.71-.703c-.472-.48-.946-.952-1.42-1.42zm-2.892-2.774-.682.731c.483.45.965.907 1.448 1.37l.692-.721a143.46 143.46 0 0 0-1.458-1.38zm-2.978-2.699-.66.751c.495.436.99.878 1.486 1.327l.672-.74c-.5-.453-.998-.899-1.498-1.338zm-3.06-2.606-.636.771c.509.42 1.018.846 1.526 1.28l.649-.762a123.74 123.74 0 0 0-1.54-1.29zm-3.148-2.506-.609.793c.523.402 1.046.81 1.569 1.227l.623-.782a114.8 114.8 0 0 0-1.583-1.238zm-3.237-2.393-.58.815c.538.381 1.074.77 1.611 1.168l.595-.805a106.5 106.5 0 0 0-1.626-1.178zm-3.311-2.257-.546.838c.552.36 1.104.728 1.655 1.105l.564-.827a98.894 98.894 0 0 0-1.673-1.116zm-3.417-2.126-.51.86c.567.336 1.134.68 1.7 1.032l.528-.848a91.922 91.922 0 0 0-1.718-1.044zm-3.51-1.974-.47.883c.582.31 1.163.627 1.745.954l.49-.871a85.639 85.639 0 0 0-1.765-.966zm-3.606-1.806-.425.905c.596.28 1.192.57 1.788.868l.448-.894a80.043 80.043 0 0 0-1.81-.879zm-3.693-1.619-.377.926c.61.249 1.22.507 1.83.774l.401-.916a75.178 75.178 0 0 0-1.854-.784zm-19.308-8.771L1.5 144.088l8.946 4.606.048-3.961.77.07c.329.032.658.067.987.105l.114-.993c-.62-.072-1.24-.134-1.86-.186l.048-4.034zm15.523 7.352-.325.946c.624.214 1.247.438 1.87.671l.35-.936a71.041 71.041 0 0 0-1.895-.68zm-3.863-1.199-.268.964c.635.176 1.27.363 1.904.56l.297-.955c-.644-.2-1.289-.39-1.933-.569zm-3.932-.964-.208.978c.645.137 1.29.285 1.935.443l.238-.971c-.655-.16-1.31-.31-1.965-.45zm-3.987-.716-.145.989c.653.096 1.306.202 1.958.32l.177-.985a63.183 63.183 0 0 0-1.99-.324z" fill="#161616" fill-rule="nonzero"/>
    </g>
</svg>
