<?xml version="1.0" encoding="UTF-8"?>
<svg width="28px" height="29px" viewBox="0 0 28 29" version="1.1" xmlns="http://www.w3.org/2000/svg" xmlns:xlink="http://www.w3.org/1999/xlink">
    <title>8D71E23F-4047-4710-A2B8-D887903292BC</title>
    <g id="页面-1" stroke="none" stroke-width="1" fill="none" fill-rule="evenodd">
        <g id="CareerMate-AI_Landing-page" transform="translate(-556.000000, -3545.000000)" fill="#3266FF">
            <g id="编组-59" transform="translate(248.000000, 3367.000000)">
                <g id="编组" transform="translate(321.782792, 192.448177) rotate(-20.000000) translate(-321.782792, -192.448177) translate(311.651213, 181.448177)">
                    <path d="M1.78059542,0.966608944 L17.4331923,9.46373297 C17.9185697,9.72722353 18.0984444,10.3343009 17.8349539,10.8196783 C17.6778377,11.1091028 17.3882964,11.302617 17.0607852,11.3370919 L9.7645652,12.105115 C9.44920108,12.1383112 9.16827247,12.3191161 9.007431,12.5924045 L4.88557872,19.5959116 C4.60545108,20.071881 3.99251326,20.2306422 3.51654377,19.9505146 C3.25886749,19.7988615 3.08256795,19.5398649 3.03597595,19.2445263 L0.315719781,2.00129307 C0.229656867,1.45575515 0.602134953,0.943741509 1.14767287,0.857678596 C1.36488539,0.823411606 1.58733656,0.86169699 1.78059542,0.966608944 Z" id="路径"></path>
                </g>
            </g>
        </g>
    </g>
</svg>