<?xml version="1.0" encoding="UTF-8"?>
<svg width="102px" height="102px" viewBox="0 0 102 102" version="1.1" xmlns="http://www.w3.org/2000/svg" xmlns:xlink="http://www.w3.org/1999/xlink">
    <title>5BE6A85D-434F-4726-9CBA-9713845A5F72</title>
    <g id="页面-1" stroke="none" stroke-width="1" fill="none" fill-rule="evenodd" stroke-opacity="0.200857736">
        <g id="CareerMate-AI_Landing-page" transform="translate(-909.000000, -4265.000000)" stroke="#3C6DFF" stroke-width="2">
            <g id="编组-7" transform="translate(296.000000, 3984.000000)">
                <g id="编组-60" transform="translate(194.000000, 148.000000)">
                    <g id="编组-45" transform="translate(420.000000, 134.000000)">
                        <path d="M0,32 L0,28 C-1.8937905e-15,12.536027 12.536027,2.84068575e-15 28,0 L32,0 L32,0" id="路径"></path>
                        <path d="M0,100 L0,96 C-1.8937905e-15,80.536027 12.536027,68 28,68 L32,68 L32,68" id="路径备份-3" transform="translate(16.000000, 84.000000) scale(1, -1) translate(-16.000000, -84.000000) "></path>
                        <path d="M68,32 L68,28 C68,12.536027 80.536027,2.84068575e-15 96,0 L100,0 L100,0" id="路径备份-2" transform="translate(84.000000, 16.000000) scale(-1, 1) translate(-84.000000, -16.000000) "></path>
                        <path d="M68,100 L68,96 C68,80.536027 80.536027,68 96,68 L100,68 L100,68" id="路径备份-4" transform="translate(84.000000, 84.000000) scale(-1, -1) translate(-84.000000, -84.000000) "></path>
                    </g>
                </g>
            </g>
        </g>
    </g>
</svg>