<svg width="48" height="48" viewBox="0 0 48 48" xmlns="http://www.w3.org/2000/svg" xmlns:xlink="http://www.w3.org/1999/xlink">
    <defs>
        <linearGradient x1="19.131%" y1="0%" x2="100%" y2="85.641%" id="8vfm63cecc">
            <stop stop-color="#3266FF" stop-opacity="0" offset="0%"/>
            <stop stop-color="#3266FF" offset="49.424%"/>
            <stop stop-color="#3266FF" offset="100%"/>
        </linearGradient>
        <filter x="-15%" y="-15%" width="130%" height="130%" filterUnits="objectBoundingBox" id="tjzjppx8fa">
            <feOffset in="SourceAlpha" result="shadowOffsetOuter1"/>
            <feGaussianBlur stdDeviation="2" in="shadowOffsetOuter1" result="shadowBlurOuter1"/>
            <feColorMatrix values="0 0 0 0 0 0 0 0 0 0 0 0 0 0 0 0 0 0 0.0346099213 0" in="shadowBlurOuter1"/>
        </filter>
        <circle id="tz3v4exk0b" cx="20" cy="20" r="20"/>
    </defs>
    <g fill="none" fill-rule="evenodd">
        <g transform="translate(4 4)">
            <use fill="#000" filter="url(#tjzjppx8fa)" xlink:href="#tz3v4exk0b"/>
            <use fill="#FFF" xlink:href="#tz3v4exk0b"/>
        </g>
        <path d="m19.633 25.664-4.01-1.184a.5.5 0 0 1 0-.96l4.01-1.184a4 4 0 0 0 2.703-2.703l1.184-4.01a.5.5 0 0 1 .96 0l1.184 4.01a4 4 0 0 0 2.703 2.703l4.01 1.184a.5.5 0 0 1 0 .96l-4.01 1.184a4 4 0 0 0-2.703 2.703l-1.184 4.01a.5.5 0 0 1-.96 0l-1.184-4.01a4 4 0 0 0-2.703-2.703z" fill="#3266FF"/>
        <path d="M5.858 5.858A19.937 19.937 0 0 0 0 20c0 11.046 8.954 20 20 20a19.937 19.937 0 0 0 14.142-5.858" stroke="url(#8vfm63cecc)" transform="translate(4 4)"/>
    </g>
</svg>
