<svg width="230" height="58" viewBox="0 0 230 58" xmlns="http://www.w3.org/2000/svg">
    <g transform="translate(5)" fill="#161616" fill-rule="evenodd">
        <circle cx="110" cy="5" r="5"/>
        <path d="M110.5 5v8c0 9.113-7.387 16.5-16.5 16.5H16C7.44 29.5.5 36.44.5 45v9.591l3.564-6.336.872.49-4.5 8L0 57.52l-.436-.775-4.5-8 .872-.49L-.5 54.59V45c0-9.113 7.387-16.5 16.5-16.5h78c8.56 0 15.5-6.94 15.5-15.5V5h1z" fill-rule="nonzero"/>
        <path d="M110.5 5v8c0 8.56 6.94 15.5 15.5 15.5h78c9.113 0 16.5 7.387 16.5 16.5v9.591l3.564-6.336.872.49-4.5 8-.436.775-.436-.775-4.5-8 .872-.49 3.564 6.336V45c0-8.56-6.94-15.5-15.5-15.5h-78c-9.113 0-16.5-7.387-16.5-16.5V5h1z" fill-rule="nonzero"/>
    </g>
</svg>
