<?xml version="1.0" encoding="UTF-8"?>
<svg width="522px" height="319px" viewBox="0 0 522 319" version="1.1" xmlns="http://www.w3.org/2000/svg" xmlns:xlink="http://www.w3.org/1999/xlink">
    <title>2A61D564-D8D5-4B25-9C86-61D085F8381C</title>
    <defs>
        <linearGradient x1="12.0145762%" y1="45.7168352%" x2="91.2809086%" y2="54.2831648%" id="linearGradient-1">
            <stop stop-color="#504FFD" offset="0%"></stop>
            <stop stop-color="#40C3FB" offset="100%"></stop>
        </linearGradient>
    </defs>
    <g id="页面-1" stroke="none" stroke-width="1" fill="none" fill-rule="evenodd">
        <g id="CareerMate-AI_Landing-page" transform="translate(-248.000000, -3367.000000)">
            <g id="编组-59" transform="translate(248.000000, 3367.000000)">
                <g id="编组-18" transform="translate(132.000000, 85.000000)">
                    <rect id="矩形备份-15" stroke="#F0F1F4" x="0.5" y="0.5" width="195" height="79" rx="39.5"></rect>
                    <rect id="矩形备份-14" stroke="#E5E6EA" x="8.5" y="8.5" width="179" height="63" rx="31.5"></rect>
                    <g id="编组-9" transform="translate(16.000000, 16.000000)">
                        <rect id="矩形" fill="url(#linearGradient-1)" x="0" y="0" width="164" height="48" rx="24"></rect>
                        <text id="AI-Chatbot" font-family="Inter-Regular_Bold, Inter" font-size="18" font-weight="bold" fill="#FFFFFF">
                            <tspan x="47" y="31">AI Chatbot</tspan>
                        </text>
                        <path d="M28.0891155,25.7077193 L25.623575,24.9795225 C25.358742,24.9013041 25.207461,24.6232061 25.2856793,24.3583731 C25.3337174,24.1957252 25.4609271,24.0685155 25.623575,24.0204775 L28.0891155,23.2922807 C29.3902988,22.9079765 30.4079765,21.8902988 30.7922807,20.5891155 L31.5204775,18.123575 C31.5986959,17.858742 31.8767939,17.707461 32.1416269,17.7856793 C32.3042748,17.8337174 32.4314845,17.9609271 32.4795225,18.123575 L33.2077193,20.5891155 C33.5920235,21.8902988 34.6097012,22.9079765 35.9108845,23.2922807 L38.376425,24.0204775 C38.641258,24.0986959 38.792539,24.3767939 38.7143207,24.6416269 C38.6662826,24.8042748 38.5390729,24.9314845 38.376425,24.9795225 L35.9108845,25.7077193 C34.6097012,26.0920235 33.5920235,27.1097012 33.2077193,28.4108845 L32.4795225,30.876425 C32.4013041,31.141258 32.1232061,31.292539 31.8583731,31.2143207 C31.6957252,31.1662826 31.5685155,31.0390729 31.5204775,30.876425 L30.7922807,28.4108845 C30.4079765,27.1097012 29.3902988,26.0920235 28.0891155,25.7077193 Z" id="星形" stroke="#FFFFFF" stroke-width="1.5"></path>
                    </g>
                </g>
                <g id="编组-28" transform="translate(324.000000, 194.000000)">
                    <rect id="矩形" fill="#3266FF" x="0" y="0" width="72" height="40" rx="12"></rect>
                    <text id="User" font-family="Inter-Regular, Inter" font-size="14" font-weight="normal" line-spacing="18" fill="#FFFFFF">
                        <tspan x="20" y="25">User</tspan>
                    </text>
                </g>
                <g id="编组-31" transform="translate(324.000000, 247.000000)">
                    <rect id="矩形" fill="#3266FF" x="0" y="0" width="198" height="72" rx="12"></rect>
                    <rect id="矩形备份-49" fill="#FFFFFF" x="12" y="12" width="174" height="48" rx="10"></rect>
                    <text id="Your-resume.PDF" font-family="Inter-Regular, Inter" font-size="14" font-weight="normal" line-spacing="24" fill="#161616">
                        <tspan x="56" y="38">Your resume.PDF</tspan>
                    </text>
                    <g id="编组-30" transform="translate(24.000000, 24.000000)">
                        <rect id="矩形" x="0" y="0" width="24" height="24"></rect>
                        <g id="编组" transform="translate(4.000000, 2.000000)" stroke="#3266FF" stroke-width="2">
                            <path d="M2,0 L10.5857864,0 C10.8510029,1.94968197e-15 11.1053568,0.10535684 11.2928932,0.292893219 L15.7071068,4.70710678 C15.8946432,4.89464316 16,5.14899707 16,5.41421356 L16,18 C16,19.1045695 15.1045695,20 14,20 L2,20 C0.8954305,20 1.3527075e-16,19.1045695 0,18 L0,2 C-1.3527075e-16,0.8954305 0.8954305,2.02906125e-16 2,0 Z" id="路径" stroke-linejoin="round"></path>
                            <polygon id="路径" stroke-linecap="round" stroke-linejoin="round" points="5 7 11 7 11 10.99585 5.00415 11"></polygon>
                            <line x1="5" y1="7" x2="5" y2="15" id="路径" stroke-linecap="round"></line>
                        </g>
                    </g>
                </g>
                <g id="编组-27">
                    <rect id="矩形备份-28" fill="#F3F6FF" x="0" y="0" width="136" height="40" rx="12"></rect>
                    <text id="CareerMate-AI" font-family="Inter-Regular, Inter" font-size="14" font-weight="normal" line-spacing="18" fill="#161616">
                        <tspan x="20" y="25">CareerMate AI</tspan>
                    </text>
                </g>
                <g id="编组" transform="translate(321.782792, 192.448177) rotate(-20.000000) translate(-321.782792, -192.448177) translate(311.651213, 181.448177)" fill="#3266FF">
                    <path d="M1.78059542,0.966608944 L17.4331923,9.46373297 C17.9185697,9.72722353 18.0984444,10.3343009 17.8349539,10.8196783 C17.6778377,11.1091028 17.3882964,11.302617 17.0607852,11.3370919 L9.7645652,12.105115 C9.44920108,12.1383112 9.16827247,12.3191161 9.007431,12.5924045 L4.88557872,19.5959116 C4.60545108,20.071881 3.99251326,20.2306422 3.51654377,19.9505146 C3.25886749,19.7988615 3.08256795,19.5398649 3.03597595,19.2445263 L0.315719781,2.00129307 C0.229656867,1.45575515 0.602134953,0.943741509 1.14767287,0.857678596 C1.36488539,0.823411606 1.58733656,0.86169699 1.78059542,0.966608944 Z" id="路径"></path>
                </g>
                <g id="编组备份-2" transform="translate(138.758348, 43.017769) scale(-1, -1) rotate(-20.000000) translate(-138.758348, -43.017769) translate(128.626769, 32.017769)" fill="#3266FF">
                    <path d="M1.78059542,0.966608944 L17.4331923,9.46373297 C17.9185697,9.72722353 18.0984444,10.3343009 17.8349539,10.8196783 C17.6778377,11.1091028 17.3882964,11.302617 17.0607852,11.3370919 L9.7645652,12.105115 C9.44920108,12.1383112 9.16827247,12.3191161 9.007431,12.5924045 L4.88557872,19.5959116 C4.60545108,20.071881 3.99251326,20.2306422 3.51654377,19.9505146 C3.25886749,19.7988615 3.08256795,19.5398649 3.03597595,19.2445263 L0.315719781,2.00129307 C0.229656867,1.45575515 0.602134953,0.943741509 1.14767287,0.857678596 C1.36488539,0.823411606 1.58733656,0.86169699 1.78059542,0.966608944 Z" id="路径"></path>
                </g>
            </g>
        </g>
    </g>
</svg>