<svg width="30" height="30" viewBox="0 0 30 30" xmlns="http://www.w3.org/2000/svg">
    <g fill-rule="nonzero" fill="none">
        <path fill="#A00" d="m6.947 9.38 17.944 5.146 1.828 3.298-2.205 7.69L1.444 18.9l2.205-7.69z"/>
        <path d="M18.1 28.53 5.285 24.855a2.667 2.667 0 0 1-1.828-3.299L8.6 3.613a2.667 2.667 0 0 1 3.298-1.829l10.254 2.94 3.656 6.597-4.41 15.38a2.667 2.667 0 0 1-3.298 1.829z" fill="#EAE8E9"/>
        <path fill="#F33" d="m3.649 11.209 23.07 6.615-2.205 7.69L1.444 18.9z"/>
        <path d="m22.153 4.725 3.656 6.596-2.563-.735a2.667 2.667 0 0 1-1.828-3.298l.735-2.563z" fill="#B8BCC2"/>
        <path d="m9.27 17.745-.533 1.858-.914-.262 1.47-5.122 1.743.5c.464.104.864.395 1.107.803.215.405.254.88.109 1.315-.106.445-.391.826-.788 1.054-.423.216-.916.25-1.365.094l-.829-.24zm.227-.793.834.239a.74.74 0 0 0 .643-.067.933.933 0 0 0 .368-.54.979.979 0 0 0-.022-.667.733.733 0 0 0-.508-.406l-.833-.24-.482 1.681zm2.41 3.559 1.469-5.122 1.59.455c.529.137.97.502 1.204.996.248.53.284 1.136.1 1.693l-.242.848a2.295 2.295 0 0 1-.983 1.382 1.85 1.85 0 0 1-1.547.202l-1.59-.454zm2.156-4.069-1.016 3.543.676.193a.891.891 0 0 0 .835-.17c.275-.23.469-.541.553-.89l.245-.854a1.66 1.66 0 0 0 0-1.04.896.896 0 0 0-.618-.585l-.675-.197zm5.358 3.92-1.75-.502-.61 2.129-.913-.262 1.468-5.123 2.982.855-.227.793-2.069-.593-.404 1.41 1.75.502-.227.791z" fill="#FFF"/>
    </g>
</svg>
