<?xml version="1.0" encoding="UTF-8"?>
<svg width="184px" height="24px" viewBox="0 0 184 24" version="1.1" xmlns="http://www.w3.org/2000/svg" xmlns:xlink="http://www.w3.org/1999/xlink">
    <title>2D69F162-0C88-4DCC-8832-37EEC80557DD</title>
    <g id="页面-1" stroke="none" stroke-width="1" fill="none" fill-rule="evenodd">
        <g id="CareerMate-AI_Landing-page" transform="translate(-240.000000, -6768.000000)" fill="#161616" fill-rule="nonzero">
            <g id="编组-23" transform="translate(0.000000, 6628.000000)">
                <g id="logo" transform="translate(240.000000, 140.000000)">
                    <g id="CareerMate-AI备份-2" transform="translate(30.000000, 3.000000)">
                        <path d="M11.6759848,12.5794155 C11.8742058,12.4498094 12.070521,12.3888183 12.2649301,12.3964422 C12.4593393,12.4040661 12.6022872,12.480305 12.6937738,12.6251588 L14.5806861,15.5298602 C14.656925,15.6442186 14.6664549,15.7795426 14.6092757,15.9358323 C14.5520966,16.092122 14.4396442,16.227446 14.2719187,16.3418043 C13.6086404,16.8144854 12.7966963,17.2109276 11.8360864,17.5311309 C10.8526048,17.8437103 9.95679797,18 9.14866582,18 C7.87547649,18 6.67852605,17.7674714 5.55781449,17.3024142 C4.42947903,16.8297332 3.45743329,16.2007624 2.64167726,15.4155019 C1.841169,14.6378653 1.19695044,13.6848793 0.709021601,12.5565438 C0.236340534,11.4358323 0,10.2579416 0,9.02287166 C0,7.78780178 0.236340534,6.60991105 0.709021601,5.48919949 C1.19695044,4.36848793 1.841169,3.41168996 2.64167726,2.61880559 C3.4498094,1.82592122 4.42185515,1.1931385 5.55781449,0.720457433 C6.67852605,0.255400254 7.87547649,0.0228716645 9.14866582,0.0228716645 C9.97204574,0.0228716645 10.8792884,0.182973316 11.8703939,0.50317662 C12.8614994,0.823379924 13.6963151,1.23506989 14.3748412,1.73824651 C14.5273189,1.85260483 14.6207116,1.98983482 14.6550191,2.14993647 C14.6893266,2.31003812 14.660737,2.44726811 14.5692503,2.56162643 L12.6594663,5.43202033 C12.5679797,5.56925032 12.4345616,5.64358323 12.2592122,5.65501906 C12.0838628,5.66645489 11.9085133,5.60736976 11.7331639,5.47776366 C11.4129606,5.21092757 11.0012706,4.98983482 10.498094,4.81448539 C10.0101652,4.63913596 9.56035578,4.55146125 9.14866582,4.55146125 C7.8678526,4.55146125 6.77763659,4.98221093 5.87801779,5.84371029 C4.98602287,6.69758577 4.54002541,7.75730623 4.54002541,9.02287166 C4.54002541,10.2731893 4.98602287,11.3252859 5.87801779,12.1791614 C6.77001271,13.025413 7.86022872,13.4485388 9.14866582,13.4485388 C9.54510801,13.4485388 9.97585769,13.3684879 10.4409149,13.2083863 C10.9212198,13.0482846 11.3329098,12.8386277 11.6759848,12.5794155 Z" id="路径"></path>
                        <path d="M24.8190234,6.01524778 L26.6830641,6.01524778 C26.8202941,6.01524778 26.9289345,6.05717916 27.0089853,6.14104193 C27.0890361,6.2249047 27.1290615,6.33545108 27.1290615,6.47268107 L27.1290615,17.2337992 C27.1290615,17.3710292 27.0890361,17.4815756 27.0089853,17.5654384 C26.9289345,17.6493011 26.8202941,17.6912325 26.6830641,17.6912325 L24.8190234,17.6912325 C24.6208023,17.6912325 24.4607007,17.5997459 24.3387185,17.4167726 L23.8126702,16.3418043 C22.9587947,17.4396442 21.8075876,17.9885642 20.3590488,17.9885642 C18.8037756,17.9885642 17.5077146,17.4129606 16.4708659,16.2617535 C15.441641,15.1105464 14.9270285,13.6543837 14.9270285,11.8932656 C14.9270285,10.1016518 15.441641,8.62261753 16.4708659,7.45616264 C17.5000908,6.28970775 18.7923398,5.7064803 20.347613,5.7064803 C21.7732801,5.7064803 22.9282991,6.26302414 23.8126702,7.37611182 L24.3387185,6.28970775 C24.4607007,6.10673443 24.6208023,6.01524778 24.8190234,6.01524778 Z M21.1366854,13.9860229 C21.708477,13.9860229 22.2078417,13.7839898 22.6347795,13.3799238 C23.0617172,12.9682338 23.2751861,12.4650572 23.2751861,11.8703939 C23.2751861,11.2681067 23.0617172,10.7611182 22.6347795,10.3494282 C22.2154656,9.93773825 21.7161009,9.73189327 21.1366854,9.73189327 C20.5725177,9.73189327 20.0807769,9.93773825 19.6614631,10.3494282 C19.2497731,10.7611182 19.0439281,11.2681067 19.0439281,11.8703939 C19.0439281,12.4650572 19.2497731,12.9682338 19.6614631,13.3799238 C20.0884008,13.7839898 20.5801416,13.9860229 21.1366854,13.9860229 Z" id="形状"></path>
                        <path d="M38.2708296,6.91867853 C38.4614268,7.08640407 38.4652387,7.31130877 38.2822654,7.59339263 L36.9214013,9.78907243 C36.7079325,10.1016518 36.4982755,10.1550191 36.2924306,9.94917408 C35.7816301,9.46886912 35.2822654,9.22871665 34.7943365,9.22871665 C34.1539299,9.22871665 33.6088219,9.48792884 33.1590125,10.0063532 C32.7244509,10.5247776 32.5071701,11.1308767 32.5071701,11.8246506 L32.5071701,17.2452351 C32.5071701,17.5425667 32.3585043,17.6912325 32.0611726,17.6912325 L28.8705754,17.6912325 C28.5732438,17.6912325 28.424578,17.5425667 28.424578,17.2452351 L28.424578,6.47268107 C28.424578,6.33545108 28.4665093,6.2249047 28.5503721,6.14104193 C28.6342349,6.05717916 28.7447813,6.01524778 28.8820113,6.01524778 L30.7346161,6.01524778 C30.9404611,6.01524778 31.1005627,6.10673443 31.214921,6.28970775 L31.9239426,7.75349428 C32.3280087,7.15120712 32.8426212,6.65946633 33.46778,6.27827192 C34.0929388,5.9047014 34.7066618,5.71791614 35.308949,5.71791614 C35.8121256,5.71791614 36.33055,5.82655654 36.8642222,6.04383736 C37.3978944,6.26111817 37.8667635,6.55273189 38.2708296,6.91867853 Z" id="路径"></path>
                        <path d="M49.5498276,11.4815756 C49.5498276,11.9390089 49.3973498,12.3240152 49.0923943,12.6365947 C48.7950626,12.9491741 48.4176802,13.1054638 47.9602469,13.1054638 L41.6247958,13.1054638 C41.7696497,13.5171537 42.0479216,13.8506989 42.4596115,14.1060991 C42.8713015,14.3614994 43.3439826,14.4891995 43.8776547,14.4891995 C44.5866763,14.4891995 45.2308949,14.2909784 45.8103104,13.8945362 C46.0771465,13.6963151 46.313487,13.7420584 46.519332,14.0317662 L47.880196,15.9301144 C48.0784171,16.1969504 48.0555455,16.429479 47.811581,16.6277001 C47.2779089,17.047014 46.6470321,17.3805591 45.9189508,17.6283355 C45.1908695,17.8761118 44.472318,18 43.7632964,18 C42.9170448,18 42.1051007,17.8437103 41.3274641,17.5311309 C40.5498276,17.2185515 39.8713015,16.7839898 39.291886,16.227446 C38.7277183,15.6709022 38.2836268,15.0133418 37.9596115,14.2547649 C37.6355963,13.4961881 37.4735887,12.7052097 37.4735887,11.8818297 C37.4735887,10.7534943 37.7480486,9.71664549 38.2969686,8.77128335 C38.8458885,7.81829733 39.5930296,7.07496823 40.5383917,6.54129606 C41.4913777,5.99237611 42.5396624,5.71791614 43.6832456,5.71791614 C45.3986204,5.71791614 46.8014159,6.2592122 47.8916319,7.34180432 C48.9970957,8.42439644 49.5498276,9.8043202 49.5498276,11.4815756 Z M43.5803231,9.30876747 C43.1228898,9.30876747 42.7150118,9.44218551 42.3566891,9.7090216 C41.9983663,9.97585769 41.7544019,10.3265565 41.6247958,10.7611182 L45.5815938,10.7611182 C45.4672354,10.3265565 45.227083,9.97585769 44.8611363,9.7090216 C44.4951897,9.44218551 44.068252,9.30876747 43.5803231,9.30876747 Z" id="形状"></path>
                        <path d="M61.6750771,11.4815756 C61.6750771,11.9390089 61.5225994,12.3240152 61.2176439,12.6365947 C60.9203122,12.9491741 60.5429298,13.1054638 60.0854965,13.1054638 L53.7500454,13.1054638 C53.8948993,13.5171537 54.1731712,13.8506989 54.5848611,14.1060991 C54.9965511,14.3614994 55.4692322,14.4891995 56.0029043,14.4891995 C56.7119259,14.4891995 57.3561445,14.2909784 57.93556,13.8945362 C58.2023961,13.6963151 58.4387366,13.7420584 58.6445816,14.0317662 L60.0054456,15.9301144 C60.2036667,16.1969504 60.1807951,16.429479 59.9368306,16.6277001 C59.4031585,17.047014 58.7722817,17.3805591 58.0442004,17.6283355 C57.3161191,17.8761118 56.5975676,18 55.888546,18 C55.0422944,18 54.2303503,17.8437103 53.4527137,17.5311309 C52.6750771,17.2185515 51.9965511,16.7839898 51.4171356,16.227446 C50.8529679,15.6709022 50.4088764,15.0133418 50.0848611,14.2547649 C49.7608459,13.4961881 49.5988383,12.7052097 49.5988383,11.8818297 C49.5988383,10.7534943 49.8732982,9.71664549 50.4222182,8.77128335 C50.9711381,7.81829733 51.7182792,7.07496823 52.6636413,6.54129606 C53.6166273,5.99237611 54.664912,5.71791614 55.8084952,5.71791614 C57.52387,5.71791614 58.9266655,6.2592122 60.0168815,7.34180432 C61.1223453,8.42439644 61.6750771,9.8043202 61.6750771,11.4815756 Z M55.7055727,9.30876747 C55.2481394,9.30876747 54.8402614,9.44218551 54.4819386,9.7090216 C54.1236159,9.97585769 53.8796515,10.3265565 53.7500454,10.7611182 L57.7068433,10.7611182 C57.592485,10.3265565 57.3523325,9.97585769 56.9863859,9.7090216 C56.6204393,9.44218551 56.1935015,9.30876747 55.7055727,9.30876747 Z" id="形状"></path>
                        <path d="M72.1878744,6.91867853 C72.3784716,7.08640407 72.3822835,7.31130877 72.1993102,7.59339263 L70.8384462,9.78907243 C70.6249773,10.1016518 70.4153204,10.1550191 70.2094754,9.94917408 C69.6986749,9.46886912 69.1993102,9.22871665 68.7113814,9.22871665 C68.0709748,9.22871665 67.5258668,9.48792884 67.0760574,10.0063532 C66.6414957,10.5247776 66.4242149,11.1308767 66.4242149,11.8246506 L66.4242149,17.2452351 C66.4242149,17.5425667 66.2755491,17.6912325 65.9782175,17.6912325 L62.7876203,17.6912325 C62.4902886,17.6912325 62.3416228,17.5425667 62.3416228,17.2452351 L62.3416228,6.47268107 C62.3416228,6.33545108 62.3835542,6.2249047 62.467417,6.14104193 C62.5512797,6.05717916 62.6618261,6.01524778 62.7990561,6.01524778 L64.6516609,6.01524778 C64.8575059,6.01524778 65.0176076,6.10673443 65.1319659,6.28970775 L65.8409875,7.75349428 C66.2450535,7.15120712 66.759666,6.65946633 67.3848248,6.27827192 C68.0099837,5.9047014 68.6237067,5.71791614 69.2259938,5.71791614 C69.7291704,5.71791614 70.2475948,5.82655654 70.781267,6.04383736 C71.3149392,6.26111817 71.7838083,6.55273189 72.1878744,6.91867853 Z" id="路径"></path>
                        <path d="M90.4770376,0.594663278 L92.2610274,17.0279543 C92.2838991,17.249047 92.2362498,17.4167726 92.1180795,17.5311309 C91.9999092,17.6454892 91.8264658,17.7026684 91.5977491,17.7026684 L88.3385369,17.7026684 C87.9420948,17.7026684 87.721002,17.4891995 87.6752587,17.0622618 L87.0691596,11.1613723 L83.2152841,17.3710292 C83.0704302,17.6073698 82.9427301,17.7693774 82.8321837,17.8570521 C82.7216373,17.9447268 82.5786894,17.9885642 82.40334,17.9885642 L82.197495,17.9885642 C82.0145217,17.9885642 81.8677618,17.9447268 81.7572155,17.8570521 C81.6466691,17.7693774 81.518969,17.6073698 81.3741151,17.3710292 L77.5202396,11.1728081 L76.9141405,17.0622618 C76.8683972,17.4891995 76.6511164,17.7026684 76.2622981,17.7026684 L73.0030859,17.7026684 C72.7743692,17.7026684 72.5990198,17.6454892 72.4770376,17.5311309 C72.3550554,17.4167726 72.3055001,17.249047 72.3283718,17.0279543 L74.1123616,0.594663278 C74.1581049,0.198221093 74.360138,0 74.7184607,0 L75.1187148,0 C75.2940643,0 75.4351062,0.0571791614 75.5418406,0.171537484 L75.6218915,0.285895807 C75.6371392,0.301143583 75.6714467,0.352604828 75.7248139,0.440279543 C75.7781812,0.527954257 75.8086767,0.575603558 75.8163006,0.583227446 L82.3004175,11.0698856 L88.7845344,0.583227446 L88.8531494,0.457433291 L89.0018152,0.217280813 C89.1009258,0.0724269377 89.2610274,0 89.4821202,0 L89.8709385,0 C90.2292612,0 90.4312942,0.198221093 90.4770376,0.594663278 Z" id="路径"></path>
                        <path d="M102.43075,6.01524778 L104.29479,6.01524778 C104.43202,6.01524778 104.540661,6.05717916 104.620712,6.14104193 C104.700762,6.2249047 104.740788,6.33545108 104.740788,6.47268107 L104.740788,17.2337992 C104.740788,17.3710292 104.700762,17.4815756 104.620712,17.5654384 C104.540661,17.6493011 104.43202,17.6912325 104.29479,17.6912325 L102.43075,17.6912325 C102.232529,17.6912325 102.072427,17.5997459 101.950445,17.4167726 L101.424396,16.3418043 C100.570521,17.4396442 99.4193139,17.9885642 97.9707751,17.9885642 C96.4155019,17.9885642 95.1194409,17.4129606 94.0825921,16.2617535 C93.0533672,15.1105464 92.5387548,13.6543837 92.5387548,11.8932656 C92.5387548,10.1016518 93.0533672,8.62261753 94.0825921,7.45616264 C95.111817,6.28970775 96.4040661,5.7064803 97.9593393,5.7064803 C99.3850064,5.7064803 100.540025,6.26302414 101.424396,7.37611182 L101.950445,6.28970775 C102.072427,6.10673443 102.232529,6.01524778 102.43075,6.01524778 Z M98.7484117,13.9860229 C99.3202033,13.9860229 99.819568,13.7839898 100.246506,13.3799238 C100.673443,12.9682338 100.886912,12.4650572 100.886912,11.8703939 C100.886912,11.2681067 100.673443,10.7611182 100.246506,10.3494282 C99.8271919,9.93773825 99.3278272,9.73189327 98.7484117,9.73189327 C98.184244,9.73189327 97.6925032,9.93773825 97.2731893,10.3494282 C96.8614994,10.7611182 96.6556544,11.2681067 96.6556544,11.8703939 C96.6556544,12.4650572 96.8614994,12.9682338 97.2731893,13.3799238 C97.7001271,13.7839898 98.1918679,13.9860229 98.7484117,13.9860229 Z" id="形状"></path>
                        <path d="M112.589036,9.37738247 L110.759303,9.37738247 L110.759303,12.7395172 C110.759303,13.2808132 110.873661,13.6524778 111.102378,13.8545108 C111.331095,14.0565438 111.723725,14.1575604 112.280269,14.1575604 C112.47849,14.1575604 112.642403,14.2109276 112.772009,14.317662 C112.901616,14.4243964 112.966419,14.5616264 112.966419,14.729352 L112.966419,17.3939009 C112.966419,17.5692503 112.897804,17.7141042 112.760574,17.8284625 C112.623344,17.9428208 112.447994,18 112.234525,18 C108.53694,18 106.688147,16.227446 106.688147,12.682338 L106.688147,9.37738247 L105.601743,9.37738247 C105.327283,9.37738247 105.190053,9.23634053 105.190053,8.95425667 L105.190053,6.4498094 C105.190053,6.16010165 105.327283,6.01524778 105.601743,6.01524778 L106.676711,6.01524778 L106.688147,3.11054638 C106.688147,2.8360864 106.810129,2.66836086 107.054093,2.60736976 L110.244691,1.92121982 C110.580142,1.85260483 110.747867,1.97458704 110.747867,2.28716645 L110.747867,6.01524778 L112.589036,6.01524778 C112.863496,6.01524778 113.000726,6.15628971 113.000726,6.43837357 L113.000726,8.95425667 C113.000726,9.23634053 112.863496,9.37738247 112.589036,9.37738247 Z" id="路径"></path>
                        <path d="M125.11454,11.4815756 C125.11454,11.9390089 124.962062,12.3240152 124.657107,12.6365947 C124.359775,12.9491741 123.982392,13.1054638 123.524959,13.1054638 L117.189508,13.1054638 C117.334362,13.5171537 117.612634,13.8506989 118.024324,14.1060991 C118.436014,14.3614994 118.908695,14.4891995 119.442367,14.4891995 C120.151389,14.4891995 120.795607,14.2909784 121.375023,13.8945362 C121.641859,13.6963151 121.878199,13.7420584 122.084044,14.0317662 L123.444908,15.9301144 C123.643129,16.1969504 123.620258,16.429479 123.376293,16.6277001 C122.842621,17.047014 122.211744,17.3805591 121.483663,17.6283355 C120.755582,17.8761118 120.03703,18 119.328009,18 C118.481757,18 117.669813,17.8437103 116.892176,17.5311309 C116.11454,17.2185515 115.436014,16.7839898 114.856598,16.227446 C114.292431,15.6709022 113.848339,15.0133418 113.524324,14.2547649 C113.200309,13.4961881 113.038301,12.7052097 113.038301,11.8818297 C113.038301,10.7534943 113.312761,9.71664549 113.861681,8.77128335 C114.410601,7.81829733 115.157742,7.07496823 116.103104,6.54129606 C117.05609,5.99237611 118.104375,5.71791614 119.247958,5.71791614 C120.963333,5.71791614 122.366128,6.2592122 123.456344,7.34180432 C124.561808,8.42439644 125.11454,9.8043202 125.11454,11.4815756 Z M119.145035,9.30876747 C118.687602,9.30876747 118.279724,9.44218551 117.921401,9.7090216 C117.563079,9.97585769 117.319114,10.3265565 117.189508,10.7611182 L121.146306,10.7611182 C121.031948,10.3265565 120.791795,9.97585769 120.425849,9.7090216 C120.059902,9.44218551 119.632964,9.30876747 119.145035,9.30876747 Z" id="形状"></path>
                        <path d="M141.212777,0.617534943 L148.520274,16.9822109 C148.619385,17.180432 148.623197,17.3519695 148.53171,17.4968234 C148.440223,17.6416773 148.280122,17.7141042 148.051405,17.7141042 L144.47199,17.7141042 C144.098419,17.7141042 143.831583,17.5158831 143.671481,17.1194409 L143.179741,15.8271919 L136.947212,15.8271919 L136.455471,17.1080051 C136.287746,17.5044473 136.017098,17.7026684 135.643527,17.7026684 L132.075547,17.7026684 C131.839207,17.7026684 131.675293,17.6340534 131.583807,17.4968234 C131.49232,17.3595934 131.496132,17.184244 131.595242,16.9707751 L138.902739,0.617534943 C139.085713,0.221092757 139.367796,0.0228716645 139.748991,0.0228716645 L140.389397,0.0228716645 C140.770592,0.0228716645 141.045052,0.221092757 141.212777,0.617534943 Z M140.057758,7.61626429 L138.308076,12.2134689 L141.807441,12.2134689 L140.057758,7.61626429 Z" id="形状"></path>
                        <path d="M154.001305,0.789072427 L154.001305,17.2223634 C154.001305,17.5349428 153.841203,17.6912325 153.521,17.6912325 L149.930148,17.6912325 C149.617569,17.6912325 149.461279,17.5349428 149.461279,17.2223634 L149.461279,0.789072427 C149.461279,0.468869123 149.617569,0.308767471 149.930148,0.308767471 L153.521,0.308767471 C153.841203,0.308767471 154.001305,0.468869123 154.001305,0.789072427 Z" id="路径"></path>
                    </g>
                    <g id="编组-13">
                        <path d="M14.0671784,1.24122162 L14.0671784,5.37862704 C11.0966447,5.37862704 8.68855137,7.78672039 8.68855137,10.7572541 L4.55114596,10.7572541 C4.55114596,5.50169448 8.81161881,1.24122162 14.0671784,1.24122162 Z M5.37862704,0 C6.52114,0 7.44732975,0.92618975 7.44732975,2.06870271 C7.44732975,3.21121567 6.52114,4.13740542 5.37862704,4.13740542 C4.23611408,4.13740542 3.30992433,3.21121567 3.30992433,2.06870271 C3.30992433,0.92618975 4.23611408,0 5.37862704,0 Z" id="形状结合"></path>
                        <path d="M0,14.8201862 L3.5830982,12.7514835 C5.06836504,15.3240411 8.35788173,16.2054645 10.9304394,14.7201976 L12.9991421,18.3032958 C8.44769395,20.9310756 2.6277798,19.3716343 0,14.8201862 Z M3.26934623,22.9653032 C2.69808975,21.975858 3.03709873,20.7106593 4.02654397,20.1394028 C5.01598922,19.5681463 6.28118795,19.9071553 6.85244442,20.8966005 C7.4237009,21.8860458 7.08469193,23.1512445 6.09524668,23.722501 C5.10580143,24.2937574 3.84060271,23.9547485 3.26934623,22.9653032 Z" id="形状"></path>
                        <path d="M18.3032958,20.4447014 L14.7201976,18.3759987 C16.2054645,15.8034411 15.3240411,12.5139244 12.7514835,11.0286575 L14.8201862,7.44555932 C19.3716343,10.0733391 20.9310756,15.8932533 18.3032958,20.4447014 Z M23.722501,13.540806 C23.1512445,14.5302512 21.8860458,14.8692602 20.8966005,14.2980037 C19.9071553,13.7267473 19.5681463,12.4615485 20.1394028,11.4721033 C20.7106593,10.482658 21.975858,10.1436491 22.9653032,10.7149055 C23.9547485,11.286162 24.2937574,12.5513608 23.722501,13.540806 Z" id="形状"></path>
                    </g>
                </g>
            </g>
        </g>
    </g>
</svg>