<svg width="184" height="24" viewBox="0 0 184 24" xmlns="http://www.w3.org/2000/svg">
    <g fill="#161616" fill-rule="nonzero">
        <path d="M41.676 15.58a.997.997 0 0 1 .589-.184c.194.008.337.084.429.23l1.887 2.904c.076.114.085.25.028.406a.85.85 0 0 1-.337.406c-.663.472-1.475.869-2.436 1.19-.983.312-1.88.468-2.687.468a9.275 9.275 0 0 1-3.591-.698c-1.129-.472-2.1-1.101-2.916-1.886-.8-.778-1.445-1.731-1.933-2.86A9.001 9.001 0 0 1 30 12.024c0-1.235.236-2.413.709-3.534.488-1.12 1.132-2.077 1.933-2.87.808-.793 1.78-1.426 2.916-1.899a9.275 9.275 0 0 1 3.59-.697c.824 0 1.731.16 2.722.48.991.32 1.826.732 2.505 1.235a.692.692 0 0 1 .28.412.47.47 0 0 1-.086.412l-1.91 2.87a.492.492 0 0 1-.4.223c-.175.011-.35-.048-.526-.177-.32-.267-.732-.488-1.235-.664-.488-.175-.938-.263-1.35-.263-1.28 0-2.37.431-3.27 1.293-.892.854-1.338 1.913-1.338 3.179 0 1.25.446 2.302 1.338 3.156.892.846 1.982 1.27 3.27 1.27.397 0 .828-.08 1.293-.24.48-.16.892-.37 1.235-.63zM54.819 9.015h1.864a.43.43 0 0 1 .326.126.46.46 0 0 1 .12.332v10.76a.46.46 0 0 1-.12.332.43.43 0 0 1-.326.126H54.82c-.198 0-.358-.091-.48-.274l-.526-1.075c-.854 1.098-2.005 1.647-3.454 1.647-1.555 0-2.851-.576-3.888-1.727-1.03-1.151-1.544-2.608-1.544-4.369 0-1.791.515-3.27 1.544-4.437 1.03-1.166 2.321-1.75 3.877-1.75 1.425 0 2.58.557 3.465 1.67l.526-1.086c.122-.183.282-.275.48-.275zm-3.682 7.971a2.11 2.11 0 0 0 1.498-.606c.427-.412.64-.915.64-1.51a2.03 2.03 0 0 0-.64-1.52 2.065 2.065 0 0 0-1.498-.618c-.564 0-1.056.206-1.476.617-.411.412-.617.92-.617 1.521 0 .595.206 1.098.617 1.51.427.404.92.606 1.476.606zM68.27 9.919c.191.167.195.392.012.674l-1.36 2.196c-.214.313-.424.366-.63.16-.51-.48-1.01-.72-1.498-.72-.64 0-1.185.259-1.635.777a2.744 2.744 0 0 0-.652 1.819v5.42c0 .298-.148.446-.446.446h-3.19c-.298 0-.446-.148-.446-.446V9.473c0-.138.042-.248.125-.332a.448.448 0 0 1 .332-.126h1.853c.205 0 .366.092.48.275l.709 1.463a4.92 4.92 0 0 1 1.544-1.475c.625-.373 1.239-.56 1.84-.56.504 0 1.023.109 1.556.326a4.733 4.733 0 0 1 1.407.875zM79.55 14.482c0 .457-.153.842-.458 1.155-.297.312-.674.468-1.132.468h-6.335c.145.412.423.746.835 1.001.411.255.884.383 1.418.383.709 0 1.353-.198 1.932-.594.267-.199.503-.153.71.137l1.36 1.898c.198.267.176.5-.068.698a6.339 6.339 0 0 1-1.893 1 6.662 6.662 0 0 1-2.156.372 6.471 6.471 0 0 1-2.436-.469 6.294 6.294 0 0 1-2.035-1.304 6.11 6.11 0 0 1-1.332-1.972 5.98 5.98 0 0 1-.486-2.373c0-1.129.274-2.165.823-3.11a5.885 5.885 0 0 1 2.241-2.23 6.189 6.189 0 0 1 3.145-.824c1.716 0 3.118.541 4.209 1.624 1.105 1.082 1.658 2.462 1.658 4.14zm-5.97-2.173c-.457 0-.865.133-1.223.4a1.984 1.984 0 0 0-.732 1.052h3.957a1.85 1.85 0 0 0-.72-1.052 2.116 2.116 0 0 0-1.282-.4zM91.675 14.482c0 .457-.152.842-.457 1.155-.298.312-.675.468-1.133.468H83.75c.145.412.423.746.835 1.001.412.255.884.383 1.418.383.709 0 1.353-.198 1.933-.594.266-.199.503-.153.709.137l1.36 1.898c.199.267.176.5-.068.698a6.339 6.339 0 0 1-1.893 1A6.662 6.662 0 0 1 85.89 21a6.471 6.471 0 0 1-2.436-.469 6.294 6.294 0 0 1-2.036-1.304 6.11 6.11 0 0 1-1.332-1.972 5.98 5.98 0 0 1-.486-2.373c0-1.129.274-2.165.823-3.11a5.885 5.885 0 0 1 2.242-2.23 6.189 6.189 0 0 1 3.144-.824c1.716 0 3.119.541 4.209 1.624 1.105 1.082 1.658 2.462 1.658 4.14zm-5.97-2.173c-.457 0-.865.133-1.223.4a1.984 1.984 0 0 0-.732 1.052h3.957a1.85 1.85 0 0 0-.72-1.052 2.116 2.116 0 0 0-1.281-.4zM102.188 9.919c.19.167.194.392.011.674l-1.36 2.196c-.214.313-.424.366-.63.16-.51-.48-1.01-.72-1.498-.72-.64 0-1.185.259-1.635.777a2.744 2.744 0 0 0-.652 1.819v5.42c0 .298-.148.446-.446.446h-3.19c-.298 0-.446-.148-.446-.446V9.473c0-.138.042-.248.125-.332a.448.448 0 0 1 .332-.126h1.853c.206 0 .366.092.48.275l.709 1.463a4.92 4.92 0 0 1 1.544-1.475c.625-.373 1.239-.56 1.841-.56.503 0 1.022.109 1.555.326a4.733 4.733 0 0 1 1.407.875zM120.477 3.595l1.784 16.433c.023.221-.025.389-.143.503-.118.114-.292.172-.52.172h-3.26c-.396 0-.617-.214-.663-.64l-.606-5.902-3.854 6.21c-.145.236-.272.398-.383.486a.67.67 0 0 1-.429.132h-.206a.688.688 0 0 1-.44-.132c-.11-.088-.238-.25-.383-.486l-3.854-6.198-.606 5.89c-.046.426-.263.64-.652.64h-3.259c-.229 0-.404-.058-.526-.172-.122-.114-.171-.282-.149-.503l1.784-16.433c.046-.397.248-.595.606-.595h.4c.176 0 .317.057.424.172l.08.114c.015.015.05.067.103.154.053.088.084.136.091.143L112.3 14.07l6.485-10.487.068-.126.149-.24c.099-.145.259-.217.48-.217h.389c.358 0 .56.198.606.595zM132.43 9.015h1.865a.43.43 0 0 1 .326.126.46.46 0 0 1 .12.332v10.76a.46.46 0 0 1-.12.332.43.43 0 0 1-.326.126h-1.864c-.198 0-.359-.091-.48-.274l-.527-1.075c-.853 1.098-2.005 1.647-3.453 1.647-1.555 0-2.852-.576-3.888-1.727-1.03-1.151-1.544-2.608-1.544-4.369 0-1.791.514-3.27 1.544-4.437 1.029-1.166 2.321-1.75 3.876-1.75 1.426 0 2.581.557 3.465 1.67l.526-1.086c.122-.183.283-.275.48-.275zm-3.682 7.971a2.11 2.11 0 0 0 1.499-.606c.426-.412.64-.915.64-1.51a2.03 2.03 0 0 0-.64-1.52 2.065 2.065 0 0 0-1.499-.618c-.564 0-1.055.206-1.475.617-.412.412-.617.92-.617 1.521 0 .595.205 1.098.617 1.51.427.404.919.606 1.475.606zM142.589 12.377h-1.83v3.363c0 .54.115.912.343 1.115.23.202.622.303 1.178.303.198 0 .362.053.492.16a.51.51 0 0 1 .194.411v2.665c0 .175-.068.32-.205.434a.794.794 0 0 1-.526.172c-3.698 0-5.547-1.773-5.547-5.318v-3.305h-1.086c-.275 0-.412-.14-.412-.423V9.45c0-.29.137-.435.412-.435h1.075l.011-2.904c0-.275.122-.443.366-.504l3.19-.686c.336-.068.504.054.504.366v3.728h1.841c.274 0 .412.141.412.423v2.516c0 .282-.138.423-.412.423zM155.115 14.482c0 .457-.153.842-.458 1.155-.297.312-.675.468-1.132.468h-6.335c.144.412.423.746.834 1.001.412.255.885.383 1.418.383.71 0 1.354-.198 1.933-.594.267-.199.503-.153.709.137l1.36 1.898c.2.267.176.5-.068.698a6.339 6.339 0 0 1-1.892 1 6.662 6.662 0 0 1-2.156.372 6.471 6.471 0 0 1-2.436-.469 6.294 6.294 0 0 1-2.035-1.304 6.11 6.11 0 0 1-1.333-1.972 5.98 5.98 0 0 1-.486-2.373c0-1.129.275-2.165.824-3.11a5.885 5.885 0 0 1 2.241-2.23 6.189 6.189 0 0 1 3.145-.824c1.715 0 3.118.541 4.208 1.624 1.106 1.082 1.659 2.462 1.659 4.14zm-5.97-2.173c-.457 0-.865.133-1.224.4a1.984 1.984 0 0 0-.731 1.052h3.956a1.85 1.85 0 0 0-.72-1.052 2.116 2.116 0 0 0-1.281-.4zM171.213 3.618l7.307 16.364c.1.198.103.37.012.515-.092.145-.252.217-.48.217h-3.58c-.374 0-.64-.198-.8-.595l-.492-1.292h-6.233l-.492 1.281c-.167.396-.438.595-.811.595h-3.568c-.237 0-.4-.069-.492-.206-.092-.137-.088-.313.011-.526l7.308-16.353c.183-.397.465-.595.846-.595h.64c.382 0 .656.198.824.595zm-1.155 6.998-1.75 4.597h3.5l-1.75-4.597zM184.001 3.79v16.432c0 .313-.16.47-.48.47h-3.59c-.313 0-.47-.157-.47-.47V3.79c0-.32.157-.48.47-.48h3.59c.32 0 .48.16.48.48z"/>
        <g>
            <path d="M14.067 1.241V5.38a5.379 5.379 0 0 0-5.378 5.378H4.55a9.516 9.516 0 0 1 9.516-9.516zM5.38 0a2.069 2.069 0 1 1 0 4.137 2.069 2.069 0 0 1 0-4.137zM0 14.82l3.583-2.069a5.379 5.379 0 0 0 7.347 1.97L13 18.302A9.516 9.516 0 0 1 0 14.82zm3.27 8.145a2.069 2.069 0 1 1 3.582-2.068 2.069 2.069 0 0 1-3.583 2.068zM18.303 20.445l-3.583-2.069a5.379 5.379 0 0 0-1.969-7.347l2.07-3.583a9.516 9.516 0 0 1 3.482 12.999zm5.42-6.904a2.069 2.069 0 1 1-3.584-2.069 2.069 2.069 0 0 1 3.584 2.069z"/>
        </g>
    </g>
</svg>
